<?xml version="1.0" encoding="UTF-8"?>
<svg width="22px" height="17px" viewBox="0 0 22 17" version="1.1" xmlns="http://www.w3.org/2000/svg" xmlns:xlink="http://www.w3.org/1999/xlink">
    <!-- Generator: Sketch 54.1 (76490) - https://sketchapp.com -->
    <title>mail</title>
    <desc>Created with Sketch.</desc>
    <g id="Page-1" stroke="none" stroke-width="1" fill="none" fill-rule="evenodd">
        <g id="mail" fill="#000000" fill-rule="nonzero">
            <path d="M17.4907787,3.56983865 C17.295181,3.54539236 17.0979785,3.60073306 16.9436584,3.7233764 L11.0270674,8.31554517 L9.75436494,7.32402247 L5.12091775,3.7287973 C4.9097777,3.5639149 4.62660794,3.52446946 4.37844428,3.62537102 C4.13028062,3.72627258 3.95498053,3.95212858 3.91880597,4.21756733 C3.88263141,4.48300608 3.99110084,4.74753479 4.20321371,4.91116382 L8.12448629,7.95760764 L4.17306382,11.4393499 C4.02020238,11.5677328 3.92596119,11.7526352 3.91189777,11.9517608 C3.89783436,12.1508865 3.96515193,12.347199 4.09845169,12.4957924 L4.09915371,12.4966007 C4.24160996,12.6565885 4.4451926,12.748713 4.65940719,12.7501247 C4.84377597,12.7517477 5.02188654,12.6833209 5.15774427,12.5586728 L9.32491506,8.88645011 L10.5633198,9.84685393 C10.6952946,9.95086866 10.8587714,10.0068117 11.0268029,10.0054616 C11.1937857,10.0057733 11.3561306,9.9505441 11.4882813,9.84846809 L12.7713906,8.85431528 L16.8949569,12.5522631 C17.0309046,12.6774789 17.2094243,12.7462409 17.3942431,12.7445778 C17.6080368,12.7448682 17.8119187,12.6544531 17.9552258,12.4957998 C18.2289748,12.1870428 18.2030425,11.7154304 17.8970915,11.438549 L13.976731,7.92074157 L17.8612265,4.90582697 C18.020408,4.78352509 18.1235221,4.60218056 18.1472265,4.40284517 C18.1716478,4.20729257 18.1163495,4.01013911 17.9937926,3.85581146 C17.871497,3.69661112 17.6901303,3.59350076 17.4907787,3.56983865 Z" id="Path"></path>
            <path d="M19.6793362,0.198333708 L2.38334652,0.198333708 C1.20194052,0.19967007 0.244555013,1.15705557 0.243218652,2.33846157 L0.243218652,13.9761798 C0.244567276,15.1575763 1.20194999,16.1149468 2.38334652,16.1162804 L19.6793362,16.1162804 C20.8607228,16.1149346 21.8180899,15.1575664 21.8194344,13.9761798 L21.8194344,2.33846157 C21.8181008,1.15706601 20.8607317,0.199683694 19.6793362,0.198333708 Z M20.6319733,13.9761798 C20.6313983,14.5020684 20.2052248,14.9282419 19.6793362,14.9288169 L2.38334652,14.9288169 C1.85744907,14.9282488 1.4312609,14.5020772 1.43067236,13.9761798 L1.43067236,2.33846157 C1.43125407,1.8125553 1.85744025,1.38636912 2.38334652,1.38578742 L19.6793362,1.38578742 C20.2052336,1.38637596 20.6314052,1.81256412 20.6319733,2.33846157 L20.6319733,13.9761798 Z" id="Shape"></path>
        </g>
    </g>
</svg>