<?xml version="1.0" encoding="UTF-8"?>
<svg width="28px" height="21px" viewBox="0 0 28 21" version="1.1" xmlns="http://www.w3.org/2000/svg" xmlns:xlink="http://www.w3.org/1999/xlink">
    <!-- Generator: Sketch 54.1 (76490) - https://sketchapp.com -->
    <title>mail</title>
    <desc>Created with Sketch.</desc>
    <g id="Page-1" stroke="none" stroke-width="1" fill="none" fill-rule="evenodd">
        <g id="mail" fill="#000000" fill-rule="nonzero">
            <path d="M22.2609911,4.61979119 C22.0120485,4.58815482 21.7610635,4.6597722 21.5646561,4.81848711 L14.0344494,10.7612937 L12.4146463,9.47814673 L6.51753168,4.82550239 C6.24880798,4.61212516 5.88841011,4.56107812 5.57256545,4.69165661 C5.25672079,4.8222351 5.03361158,5.11451934 4.98757123,5.45802831 C4.94153089,5.80153728 5.07958289,6.14386855 5.34954472,6.35562377 L10.3402553,10.2980805 L5.31117213,14.8038646 C5.11662121,14.9700072 4.99667788,15.2092926 4.97877898,15.4669846 C4.96088009,15.7246766 5.046557,15.9787281 5.21621124,16.1710255 L5.21710472,16.1720715 C5.39841268,16.3791145 5.65751785,16.4983345 5.93015461,16.5001614 C6.16480578,16.5022617 6.39149196,16.4137094 6.5644018,16.2524001 L11.8680737,11.5001119 L13.4442252,12.7429874 C13.6121931,12.8775947 13.8202545,12.9499916 14.0341128,12.9482444 C14.2466363,12.9486478 14.4532571,12.8771747 14.6214489,12.7450764 L16.2544971,11.4585257 L21.5026724,16.2441052 C21.6756968,16.4061492 21.9029037,16.4951353 22.1381276,16.492983 C22.4102287,16.4933588 22.6697147,16.3763511 22.8521056,16.171035 C23.2005134,15.7714672 23.1675086,15.1611452 22.7781165,14.8028281 L17.7885667,10.2503714 L22.7324701,6.34871726 C22.9350647,6.19044423 23.0663009,5.95576308 23.0964701,5.69779963 C23.1275517,5.44473156 23.0571721,5.18959179 22.9011906,4.98987365 C22.7455416,4.78384968 22.5147113,4.65041275 22.2609911,4.61979119 Z" id="Path"></path>
            <path d="M25.0464279,0.256667152 L3.03335012,0.256667152 C1.52974248,0.258396561 0.311251835,1.49736603 0.309551012,3.02624438 L0.309551012,18.0868209 C0.311267442,19.615687 1.52975453,20.854637 3.03335012,20.8563629 L25.0464279,20.8563629 C26.5500108,20.8546212 27.7684781,19.6156742 27.7701892,18.0868209 L27.7701892,3.02624438 C27.7684919,1.49737954 26.5500222,0.258414192 25.0464279,0.256667152 Z M26.2588751,18.0868209 C26.2581433,18.7673826 25.7157407,19.3189013 25.0464279,19.3196454 L3.03335012,19.3196454 C2.36402609,19.3189102 1.82160478,18.767394 1.82085573,18.0868209 L1.82085573,3.02624438 C1.82159609,2.3456598 2.36401486,1.79412474 3.03335012,1.79337196 L25.0464279,1.79337196 C25.7157519,1.7941336 26.2581521,2.34567121 26.2588751,3.02624438 L26.2588751,18.0868209 Z" id="Shape"></path>
        </g>
    </g>
</svg>